<?xml version="1.0" standalone="no"?>
<!DOCTYPE svg PUBLIC "-//W3C//DTD SVG 20010904//EN"
 "http://www.w3.org/TR/2001/REC-SVG-20010904/DTD/svg10.dtd">
<svg version="1.0" xmlns="http://www.w3.org/2000/svg"
 width="336.000000pt" height="336.000000pt" viewBox="0 0 336.000000 336.000000"
 preserveAspectRatio="xMidYMid meet">
<metadata>
Created by potrace 1.11, written by Peter Selinger 2001-2013
</metadata>
<g transform="translate(0.000000,336.000000) scale(0.100000,-0.100000)"
fill="#000000" stroke="none">
<path d="M1470 3341 c-301 -64 -560 -264 -697 -536 -101 -199 -129 -461 -73
-670 60 -221 205 -529 362 -765 16 -24 16 -26 -29 -85 -59 -77 -107 -175 -135
-272 -19 -64 -23 -103 -23 -213 0 -160 14 -223 80 -355 101 -206 278 -353 501
-417 65 -19 103 -23 214 -23 160 0 223 14 355 80 206 101 353 278 417 501 30
103 32 313 5 414 -24 89 -85 213 -140 285 -45 59 -45 61 -29 85 131 198 266
466 327 653 56 171 69 259 62 400 -20 397 -291 754 -670 883 -161 55 -367 69
-527 35z m293 -656 c82 -21 133 -50 188 -105 154 -154 155 -405 1 -559 -156
-156 -407 -157 -561 -3 -92 92 -135 224 -113 344 30 163 138 280 295 323 69
18 120 18 190 0z m117 -1115 c107 -30 238 -102 312 -169 l63 -59 -40 -58
c-132 -193 -334 -410 -441 -474 -112 -67 -191 -40 -359 125 -92 90 -226 252
-294 354 l-36 54 58 53 c104 96 258 171 405 194 86 14 246 4 332 -20z"/>
</g>
</svg>
