<svg class="animated" id="freepik_stories-people-celebrating-makar-sankranti" xmlns="http://www.w3.org/2000/svg" viewBox="0 0 500 500" version="1.1" xmlns:xlink="http://www.w3.org/1999/xlink" xmlns:svgjs="http://svgjs.com/svgjs"><style>svg#freepik_stories-people-celebrating-makar-sankranti:not(.animated) .animable {opacity: 0;}svg#freepik_stories-people-celebrating-makar-sankranti.animated #freepik--character-2--inject-1 {animation: 1.5s Infinite  linear shake;animation-delay: 0s;}            @keyframes shake {                10%, 90% {                    transform: translate3d(-1px, 0, 0);                  }                  20%, 80% {                    transform: translate3d(2px, 0, 0);                  }                  30%, 50%, 70% {                    transform: translate3d(-4px, 0, 0);                  }                  40%, 60% {                    transform: translate3d(4px, 0, 0);                  }            }        </style><g id="freepik--background-complete--inject-1" class="animable" style="transform-origin: 250px 223.097px;"><rect y="382.4" width="500" height="0.25" style="fill: rgb(235, 235, 235); transform-origin: 250px 382.525px;" id="elyqghr4geh1" class="animable"></rect><rect x="416.78" y="398.49" width="33.12" height="0.25" style="fill: rgb(235, 235, 235); transform-origin: 433.34px 398.615px;" id="elpz9vq5u3vdf" class="animable"></rect><rect x="322.53" y="401.21" width="8.69" height="0.25" style="fill: rgb(235, 235, 235); transform-origin: 326.875px 401.335px;" id="elr2ebm82ddss" class="animable"></rect><rect x="396.59" y="389.21" width="19.19" height="0.25" style="fill: rgb(235, 235, 235); transform-origin: 406.185px 389.335px;" id="elmz5rusm629n" class="animable"></rect><rect x="52.46" y="390.89" width="43.19" height="0.25" style="fill: rgb(235, 235, 235); transform-origin: 74.055px 391.015px;" id="elvo6dbwkylcs" class="animable"></rect><rect x="104.56" y="390.89" width="6.33" height="0.25" style="fill: rgb(235, 235, 235); transform-origin: 107.725px 391.015px;" id="elj30hdqm76kd" class="animable"></rect><rect x="131.47" y="395.11" width="93.68" height="0.25" style="fill: rgb(235, 235, 235); transform-origin: 178.31px 395.235px;" id="elqn9lk4lp7l" class="animable"></rect><path d="M237,337.8H43.91a5.71,5.71,0,0,1-5.7-5.71V60.66A5.71,5.71,0,0,1,43.91,55H237a5.71,5.71,0,0,1,5.71,5.71V332.09A5.71,5.71,0,0,1,237,337.8ZM43.91,55.2a5.46,5.46,0,0,0-5.45,5.46V332.09a5.46,5.46,0,0,0,5.45,5.46H237a5.47,5.47,0,0,0,5.46-5.46V60.66A5.47,5.47,0,0,0,237,55.2Z" style="fill: rgb(235, 235, 235); transform-origin: 140.46px 196.4px;" id="elrai156fw61f" class="animable"></path><path d="M453.31,337.8H260.21a5.72,5.72,0,0,1-5.71-5.71V60.66A5.72,5.72,0,0,1,260.21,55h193.1A5.71,5.71,0,0,1,459,60.66V332.09A5.71,5.71,0,0,1,453.31,337.8ZM260.21,55.2a5.47,5.47,0,0,0-5.46,5.46V332.09a5.47,5.47,0,0,0,5.46,5.46h193.1a5.47,5.47,0,0,0,5.46-5.46V60.66a5.47,5.47,0,0,0-5.46-5.46Z" style="fill: rgb(235, 235, 235); transform-origin: 356.75px 196.4px;" id="elrlyl8w6fa4a" class="animable"></path><path d="M281.63,186.78a14.1,14.1,0,0,0-4.94-1.62,29.54,29.54,0,0,0-5.48-.29c-3.66.13-7.08.47-10.61.84-7,.8-14.05,1.91-21.05,3.41s-14,3.3-20.82,5.43-13.58,4.58-20.12,7.17-13,5.28-19.28,7.94c-2.59,1.1-5.16,2.17-7.73,3.24l.24-.15a2.54,2.54,0,0,0,1.22-3.17l-.21-.42h0a5.4,5.4,0,0,0-2.85-3.76,13.22,13.22,0,0,0-4.76-1.57,20.42,20.42,0,0,0-4.67-.11c-.73.07-1.51.16-2.17.29l-1.92.38a92.69,92.69,0,0,0-14.89,4.19,137.42,137.42,0,0,0-13.61,5.9c-4.31,2.15-8.44,4.44-12.49,6.74l-11.87,7c-3.91,2.29-7.81,4.59-11.74,6.69a77.67,77.67,0,0,1-12.08,5.35A36.29,36.29,0,0,1,67,242.27h0a1.86,1.86,0,0,0-1.7.88,1,1,0,0,0,.81,1.46,30.06,30.06,0,0,0,7.29.61,45.81,45.81,0,0,0,7.53-.91,80.39,80.39,0,0,0,14.21-4.52c8.94-3.71,17.23-8,25.51-12q6.18-3,12.33-5.73c4.11-1.77,8.23-3.36,12.36-4.7a81.86,81.86,0,0,1,12.24-3c-3.87,1.8-8,3.44-12.1,5.1s-8.08,3.25-12.11,5.12a82.17,82.17,0,0,0-11.7,6.51h0a3.73,3.73,0,0,0-.88.8,2.14,2.14,0,0,0,1,3.49l.75.29a27.48,27.48,0,0,0,12,1.29,77.23,77.23,0,0,0,11.29-2,157.25,157.25,0,0,0,20.66-6.53c6.65-2.57,13-5.52,19.25-8.39l18.52-8.64c6.14-2.81,12.25-5.51,18.45-8s12.54-4.78,19-6.89,13-4,19.64-5.73l5-1.25c1.68-.43,3.31-.82,4.92-1.14,3.2-.6,6.38-1,9.23-.19h0a1.39,1.39,0,0,0,1.26-.32A.68.68,0,0,0,281.63,186.78Z" style="fill: rgb(250, 250, 250); transform-origin: 173.585px 215.044px;" id="eldrf8usrqigq" class="animable"></path><path d="M142.54,97.94a9,9,0,0,0-4.64-1c-1.64,0-3.18.13-4.77.27-3.16.28-6.34.72-9.51,1.32A110,110,0,0,0,105,103.81c-4.21,1.56-8.3,3.18-12.33,4.77l.12-.07.26-.16.1-.07c.54-.41.61-1,.16-1.38v0a2.37,2.37,0,0,0-1.22-1.72,5.55,5.55,0,0,0-2.1-.76,10.77,10.77,0,0,0-3.94.16,43.64,43.64,0,0,0-6.75,1.74,78.75,78.75,0,0,0-11.94,5.43c-3.69,2-7.23,4.08-10.84,5.92A34.65,34.65,0,0,1,51,119.94a16.37,16.37,0,0,1-5.78.8h0a.83.83,0,0,0-.78.38.45.45,0,0,0,.34.67,16.53,16.53,0,0,0,6.65,0,37,37,0,0,0,6.46-1.89c4.07-1.58,7.87-3.43,11.66-5.14,1.88-.87,3.75-1.71,5.63-2.47s3.75-1.42,5.63-2a34.89,34.89,0,0,1,5.56-1.23c-1.77.77-3.64,1.47-5.52,2.17a55.9,55.9,0,0,0-10.89,5h0a1.57,1.57,0,0,0-.73.47.79.79,0,0,0,.31,1.31l.72.3a12.29,12.29,0,0,0,5.35.72,33.84,33.84,0,0,0,5.11-.77,69.37,69.37,0,0,0,9.38-2.73c6-2.23,11.65-4.9,17.26-7.3a151.58,151.58,0,0,1,17.06-6.34c2.92-.89,5.9-1.66,8.91-2.38s6.08-1.66,8.64-1h0a.63.63,0,0,0,.57-.14A.31.31,0,0,0,142.54,97.94Z" style="fill: rgb(250, 250, 250); transform-origin: 93.5038px 109.527px;" id="el22s9ul9udze" class="animable"></path><path d="M441.8,143.53a8.38,8.38,0,0,0-4.39-1.1c-1.58-.05-3.06,0-4.58.08-3,.15-6.09.46-9.13.91a107.14,107.14,0,0,0-18,4.35c-4.07,1.33-8.05,2.74-12,4.11l.11-.06.26-.15.1-.06a.82.82,0,0,0,.2-1.32h0a2.31,2.31,0,0,0-1.1-1.69,5.62,5.62,0,0,0-2-.81,10.32,10.32,0,0,0-3.77,0,41.05,41.05,0,0,0-6.52,1.41A76,76,0,0,0,369.44,154c-3.59,1.79-7.06,3.64-10.57,5.27a33.25,33.25,0,0,1-5.36,2,15.4,15.4,0,0,1-5.55.55h0a.82.82,0,0,0-.76.34.42.42,0,0,0,.3.65,15.71,15.71,0,0,0,6.36.27,35.4,35.4,0,0,0,6.24-1.57c4-1.37,7.65-3,11.33-4.5,1.84-.75,3.65-1.49,5.48-2.15s3.64-1.22,5.45-1.7a33.05,33.05,0,0,1,5.36-1c-1.72.67-3.53,1.27-5.36,1.88a54,54,0,0,0-10.59,4.38h0a1.38,1.38,0,0,0-.72.42.75.75,0,0,0,.25,1.26l.68.32a11.71,11.71,0,0,0,5.09.87,32.22,32.22,0,0,0,4.9-.54,67.72,67.72,0,0,0,9.08-2.27c5.85-1.91,11.31-4.27,16.76-6.35a144.76,144.76,0,0,1,16.54-5.44c2.83-.75,5.71-1.38,8.61-2s5.88-1.36,8.3-.59h0a.57.57,0,0,0,.54-.11A.29.29,0,0,0,441.8,143.53Z" style="fill: rgb(250, 250, 250); transform-origin: 394.521px 152.847px;" id="elu72bqkrftin" class="animable"></path><path d="M424.69,45.06a.92.92,0,0,0-1.11-.23,152.87,152.87,0,0,1-23.46,7.88c-4,1-8.1,1.78-12.21,2.55-2.06.37-4.13.8-6.19,1.05l-6.19.82q-6.21.76-12.54,1.64c-4.2.62-8.44,1.32-12.6,2.15s-8.32,1.71-12.46,2.92a64.48,64.48,0,0,0-6.19,2.1,29.83,29.83,0,0,0-3.12,1.44c-.52.3-1.05.62-1.61,1a6.85,6.85,0,0,0-.84.74,3,3,0,0,0-.76,1.2h0l0,.13v0a1.1,1.1,0,0,0,.52,1.3l-1.69.43C321,73.11,318,74,315,75.1s-6,2.21-8.84,3.5a70.55,70.55,0,0,0-8.3,4.28.41.41,0,0,0-.22.5.57.57,0,0,0,.72.24h0c6-1.83,12-3.27,18.05-4.58,3-.61,6-1.25,9-1.73s5.92-.86,8.93-1.15,6.05-.5,9.21-.76a92,92,0,0,0,9.75-1.25,56.43,56.43,0,0,0,9.64-2.75A24.55,24.55,0,0,0,367.7,69a13.09,13.09,0,0,0,3.62-3.47l.31-.47a1.4,1.4,0,0,0,.15-.3c.25-.74-.32-1.44-1.27-1.55h0a19.56,19.56,0,0,0-4.46,0c3.34-.67,6.7-1.33,10.1-2,4.16-.85,8.3-2,12.43-2.82s8.27-2,12.37-3.15a136.41,136.41,0,0,0,23.37-9.27C424.7,45.72,424.87,45.35,424.69,45.06Z" style="fill: rgb(250, 250, 250); transform-origin: 361.191px 64.2006px;" id="elnw2vhpi48z" class="animable"></path><path d="M198.74,217.06a41.8,41.8,0,0,0-18.46-2.79h0l-.54,0-.53.05-1.06.11-.4.05-1.25.17c-.15.4-.3.8-.43,1.19l-.14.39-.33,1-.15.5c-.06.17-.11.35-.16.52h0a41.62,41.62,0,0,0-1.16,18.64c5.3-.32,11.86.44,19.07,1.76l-.45,4.16a.23.23,0,0,0,.4.17,23.5,23.5,0,0,1,7.55-6.1.22.22,0,0,0-.08-.42l-4.17-.44C196.68,228.75,197.31,222.17,198.74,217.06Z" style="fill: rgb(224, 224, 224); transform-origin: 187.2px 228.604px;" id="elvu7rku90g2" class="animable"></path><path d="M313.7,352.1c-2.64-39.37-50.87-69.49-86.08-91.47-20.55-12.83-36.78-23-40.4-31.8l.93-.38c3.5,8.54,20.41,19.1,40,31.33C263.54,281.88,312,312.15,314.7,352Z" style="fill: rgb(224, 224, 224); transform-origin: 250.96px 290.275px;" id="elv42pkae2udq" class="animable"></path><path d="M116.1,286.15a19.57,19.57,0,0,0-8.63,1.09h0l-.24.09-.23.09-.46.18-.17.08-.54.23c0,.2,0,.39,0,.59a1.21,1.21,0,0,1,0,.19c0,.16,0,.33,0,.49v.25a2.09,2.09,0,0,0,0,.25h0a19.42,19.42,0,0,0,1.85,8.51,38.48,38.48,0,0,1,8.77-1.63l.33,1.92a.11.11,0,0,0,.2,0,10.92,10.92,0,0,1,2.61-3.7.1.1,0,0,0-.09-.17l-1.93.33A39.41,39.41,0,0,1,116.1,286.15Z" style="fill: rgb(245, 245, 245); transform-origin: 112.724px 292.3px;" id="el7kt06ccduul" class="animable"></path><path d="M192.42,361c-.1-21.91-39.53-44.39-63.08-57.82-8.78-5-15.12-8.62-16.89-10.71l.38-.32c1.71,2,8.35,5.8,16.75,10.59,23.65,13.49,63.24,36.06,63.34,58.26Z" style="fill: rgb(245, 245, 245); transform-origin: 152.685px 326.575px;" id="el1bjtvs1jzvg" class="animable"></path><path d="M324.56,143.3a28.59,28.59,0,0,0-11.12-6.4h0l-.36-.1-.35-.11-.71-.19-.27-.07-.84-.2c-.2.21-.39.43-.58.65l-.18.21-.46.57-.23.28-.23.3h0a28.77,28.77,0,0,0-5.41,11.63,57.68,57.68,0,0,1,11.77,5.91l-1.33,2.55a.16.16,0,0,0,.21.21,16.23,16.23,0,0,1,6.36-2,.16.16,0,0,0,.06-.29l-2.56-1.33A58,58,0,0,1,324.56,143.3Z" style="fill: rgb(235, 235, 235); transform-origin: 314.19px 147.391px;" id="el868lwi2m4ff" class="animable"></path><path d="M376.91,359.14l-.48-.14c15.41-52.56-9.51-96.32-31.5-134.92-13.61-23.9-26.47-46.47-28-68.16l.5,0c1.54,21.58,14.37,44.11,27.95,68C367.4,262.52,392.38,306.38,376.91,359.14Z" style="fill: rgb(235, 235, 235); transform-origin: 349.32px 257.53px;" id="elsv8rouu03c" class="animable"></path><path d="M390.08,101.61A34.76,34.76,0,0,0,378.68,91h0l-.4-.22c-.12-.08-.25-.15-.38-.22l-.78-.42-.3-.15-.95-.47-.85.61-.27.2-.71.54-.34.28-.36.28h0a34.76,34.76,0,0,0-9.56,12.29,69.9,69.9,0,0,1,12.3,10.18l-2.27,2.66a.19.19,0,0,0,.19.3,19.5,19.5,0,0,1,8.07-.65.19.19,0,0,0,.15-.33l-2.67-2.26A70,70,0,0,1,390.08,101.61Z" style="fill: rgb(235, 235, 235); transform-origin: 376.93px 103.192px;" id="el50cw78kbuze" class="animable"></path><path d="M416,375.15l-.45-.22c24.1-49.6,2-116.06-17.52-174.7C386.21,164.59,376,133.8,378,112.39l.5,0c-2,21.31,8.18,52,20,87.63,9.38,28.18,20,60.12,25,90.45C429.28,325.28,426.83,353,416,375.15Z" style="fill: rgb(235, 235, 235); transform-origin: 402.143px 243.77px;" id="el64i12e84oka" class="animable"></path><path d="M310.06,344.09c96.56,0,154,31.81,159.56,38.31H99.48S187.54,344.09,310.06,344.09Z" style="fill: rgb(230, 230, 230); transform-origin: 284.55px 363.245px;" id="el9zrwr7beco" class="animable"></path><path d="M174,359.07c-96.56,0-153.94,19.37-159.56,23.33H384.58S296.52,359.07,174,359.07Z" style="fill: rgb(240, 240, 240); transform-origin: 199.51px 370.735px;" id="elukd5ksa3bim" class="animable"></path></g><g id="freepik--Shadow--inject-1" class="animable" style="transform-origin: 250px 416.24px;"><ellipse id="freepik--path--inject-1" cx="250" cy="416.24" rx="193.89" ry="11.32" style="fill: rgb(245, 245, 245); transform-origin: 250px 416.24px;" class="animable"></ellipse></g><g id="freepik--character-1--inject-1" class="animable" style="transform-origin: 190.51px 278.425px;"><path d="M252.49,380.8a1.27,1.27,0,0,1-1.27-1.28V348a.75.75,0,0,1,0-.21l7.6-46a1.27,1.27,0,0,1,1.26-1.07h9.76a1.28,1.28,0,0,1,0,2.55h-8.68l-7.42,44.81v31.44A1.27,1.27,0,0,1,252.49,380.8Z" style="fill: rgb(38, 50, 56); transform-origin: 261.11px 340.76px;" id="els5wgikrzywn" class="animable"></path><path d="M265.12,302H293.8a3.65,3.65,0,0,1,3.6,4.24l-6,36.58a6.16,6.16,0,0,1-6.08,5.16H256.59a3.64,3.64,0,0,1-3.59-4.24l6.05-36.59A6.15,6.15,0,0,1,265.12,302Z" style="fill: rgb(64, 123, 255); transform-origin: 275.199px 324.99px;" id="elzyodni3n8d" class="animable"></path><path d="M249,347c13.75,0,24.93,14.86,24.93,33.13S262.74,413.29,249,413.29s-24.93-14.86-24.93-33.13S235.24,347,249,347m0-1.27c-14.47,0-26.21,15.4-26.21,34.4s11.74,34.4,26.21,34.4,26.21-15.4,26.21-34.4-11.74-34.4-26.21-34.4Z" style="fill: rgb(224, 224, 224); transform-origin: 249px 380.13px;" id="elsupkpi766lb" class="animable"></path><path d="M252.49,349.18c12.35,0,22.39,13.9,22.39,31s-10,31-22.39,31-22.39-13.9-22.39-31,10.05-31,22.39-31m0-5.09c-15.18,0-27.48,16.15-27.48,36.07s12.3,36.08,27.48,36.08S280,400.08,280,380.16s-12.3-36.07-27.48-36.07Z" style="fill: rgb(38, 50, 56); transform-origin: 252.505px 380.165px;" id="elegf3dlad0t4" class="animable"></path><path d="M212.56,401.44c1.54,0,3.27,2.35,3.27,5.49s-1.73,5.49-3.27,5.49-3.27-2.35-3.27-5.49,1.73-5.49,3.27-5.49m0-3.82c-3.92,0-7.09,4.17-7.09,9.31s3.17,9.31,7.09,9.31,7.09-4.17,7.09-9.31-3.17-9.31-7.09-9.31Z" style="fill: rgb(38, 50, 56); transform-origin: 212.56px 406.93px;" id="el1fx9839h2lf" class="animable"></path><path d="M256.06,380.16c0-2.59-1.6-4.69-3.57-4.69s-3.57,2.1-3.57,4.69,1.6,4.69,3.57,4.69S256.06,382.75,256.06,380.16Z" style="fill: rgb(38, 50, 56); transform-origin: 252.49px 380.16px;" id="ell2ypzt9p4ae" class="animable"></path><path d="M252.49,363.68H212.56a1.28,1.28,0,0,1,0-2.55h39.93a1.28,1.28,0,0,1,0,2.55Z" style="fill: rgb(38, 50, 56); transform-origin: 232.525px 362.405px;" id="el0wbhrfporz8" class="animable"></path><path d="M212.56,408.2a1.27,1.27,0,0,1-1.27-1.27V353.4a21.33,21.33,0,0,1,21.31-21.3h22.31a1.27,1.27,0,1,1,0,2.54H232.6a18.79,18.79,0,0,0-18.77,18.76v53.53A1.27,1.27,0,0,1,212.56,408.2Z" style="fill: rgb(38, 50, 56); transform-origin: 233.735px 370.15px;" id="elmhfjkuiuc6h" class="animable"></path><path d="M181,401.06a1.91,1.91,0,0,1-1.4-3.21L196.15,380a13.93,13.93,0,0,1,10.18-4.43h6.23a1.91,1.91,0,1,1,0,3.82h-6.23a10.12,10.12,0,0,0-7.38,3.21l-16.6,17.83A1.92,1.92,0,0,1,181,401.06Z" style="fill: rgb(38, 50, 56); transform-origin: 196.78px 388.315px;" id="el1m55i5l1bqt" class="animable"></path><path d="M180.88,402.16l32.93.14a9.92,9.92,0,0,0,6.15-2.95l10-10.55c1.55-1.63,1.31-3-.54-3l-32.92-.14a10,10,0,0,0-6.16,2.95l-10,10.55C178.8,400.81,179,402.15,180.88,402.16Z" style="fill: rgb(64, 123, 255); transform-origin: 205.147px 393.98px;" id="el168f9980n9f" class="animable"></path><g id="el2m7i4cr4wkd"><path d="M180.88,402.16l32.93.14a9.92,9.92,0,0,0,6.15-2.95l10-10.55c1.55-1.63,1.31-3-.54-3l-32.92-.14a10,10,0,0,0-6.16,2.95l-10,10.55C178.8,400.81,179,402.15,180.88,402.16Z" style="fill: rgb(255, 255, 255); opacity: 0.5; transform-origin: 205.147px 393.98px;" class="animable"></path></g><path d="M209.06,362.41h78.3a3.34,3.34,0,0,0,3.33-3.34v-3.33H209.06a3.34,3.34,0,0,0-3.34,3.33h0A3.35,3.35,0,0,0,209.06,362.41Z" style="fill: rgb(64, 123, 255); transform-origin: 248.205px 359.075px;" id="el3pb1uxd8z69" class="animable"></path><path d="M263.61,251c-13.12,4-.79,16.62-5.45,22.36S239.9,284,247.84,295.26s39.86,17.89,40.07-1.38-10.74-18.2-5.56-26.36C289.55,256.2,275.89,241.16,263.61,251Z" style="fill: rgb(38, 50, 56); transform-origin: 266.658px 276.956px;" id="elc9zsjt077zt" class="animable"></path><path d="M173.77,395.77c5.32,2.35,10.33.91,13.13,2.13,2.41,1,2.82,1.68,4.82,2.31,1.68.53,2.16-1.09,2.26-3.09.06-1-.13-3.2.47-4.69l-6.17-5.08c-2.15,1.1-10.48,5.95-13.52,5.36C171.87,392.14,171.78,394.9,173.77,395.77Z" style="fill: rgb(38, 50, 56); transform-origin: 183.431px 393.831px;" id="elbk5qqikhh8d" class="animable"></path><path d="M223.41,355.74c-2.07,18-28.55,36.44-28.55,36.44-2.5-.8-6.56-3.05-7.18-4.39,8.43-10.54,12.32-18.78,18.07-37.56a11.06,11.06,0,0,1,8-7.51c6.86-1.66,14.44-4.51,24.17-6.37,12-1,24.44,2.37,24.44,2.37s7.37,17-4.52,17h-34.4" style="fill: rgb(64, 123, 255); transform-origin: 226.149px 364.172px;" id="elgcq08nxmza" class="animable"></path><g id="el7zxjauy4aeh"><g style="opacity: 0.4; transform-origin: 226.149px 364.172px;" class="animable"><path d="M223.41,355.74c-2.07,18-28.55,36.44-28.55,36.44-2.5-.8-6.56-3.05-7.18-4.39,8.43-10.54,12.32-18.78,18.07-37.56a11.06,11.06,0,0,1,8-7.51c6.86-1.66,14.44-4.51,24.17-6.37,12-1,24.44,2.37,24.44,2.37s7.37,17-4.52,17h-34.4" style="fill: rgb(255, 255, 255); transform-origin: 226.149px 364.172px;" id="eli8rszdzxsym" class="animable"></path></g></g><path d="M191,382.46c-.89,1-2.47,2.7-3.81,3.9a1.18,1.18,0,0,0-.41,1.41c2.07,2.93,6.7,5.29,8.2,6a1,1,0,0,0,1.06-.32l3.73-3.51c.5-.48.65-1.18.29-1.47l-7.8-6.36C192,381.86,191.45,382,191,382.46Z" style="fill: rgb(64, 123, 255); transform-origin: 193.475px 387.9px;" id="elj9b8o878ir" class="animable"></path><path d="M186.67,404.07c5.61,1.52,10.35-.66,13.31.13,2.53.66,3,1.23,5.11,1.55,1.73.27,2-1.4,1.76-3.4-.09-1-.61-3.14-.24-4.71l-6.86-4.08c-2,1.41-9.47,7.46-12.56,7.33S184.57,403.51,186.67,404.07Z" style="fill: rgb(38, 50, 56); transform-origin: 195.954px 399.669px;" id="elzt5fkyiiofi" class="animable"></path><path d="M233.73,355.74c-2.07,18-26.75,41.6-26.75,41.6-2.59-.42-6.95-2-7.76-3.26,6.74-11.69,11.1-25.07,16.85-43.85a11.06,11.06,0,0,1,8-7.51c6.86-1.66,14.44-4.51,24.17-6.37,12-1,24.44,2.37,24.44,2.37s7.37,17-4.52,17h-34.4" style="fill: rgb(64, 123, 255); transform-origin: 237.079px 366.752px;" id="elmi799fqj31g" class="animable"></path><g id="elmfzumdczasr"><g style="opacity: 0.3; transform-origin: 237.079px 366.752px;" class="animable"><path d="M233.73,355.74c-2.07,18-26.75,41.6-26.75,41.6-2.59-.42-6.95-2-7.76-3.26,6.74-11.69,11.1-25.07,16.85-43.85a11.06,11.06,0,0,1,8-7.51c6.86-1.66,14.44-4.51,24.17-6.37,12-1,24.44,2.37,24.44,2.37s7.37,17-4.52,17h-34.4" style="fill: rgb(255, 255, 255); transform-origin: 237.079px 366.752px;" id="elapkx3ses98c" class="animable"></path></g></g><path d="M201.74,388.31c-.74,1.11-2,3-3.18,4.42a1.17,1.17,0,0,0-.19,1.46c2.49,2.59,7.42,4.22,9,4.7a1,1,0,0,0,1-.48l3.15-4c.43-.55.46-1.27.07-1.5l-8.67-5.11C202.59,387.57,202.07,387.8,201.74,388.31Z" style="fill: rgb(64, 123, 255); transform-origin: 205.03px 393.305px;" id="elwptqphpy3l" class="animable"></path><path d="M252.28,294.59c-.05.54-.09.78-.15,1.13s-.1.62-.16.93c-.12.6-.25,1.19-.4,1.75-.29,1.15-.63,2.25-1,3.35A53.46,53.46,0,0,1,248,308a60.14,60.14,0,0,1-3.29,5.82c-.59,1-1.22,1.85-1.85,2.76l-2,2.65-.16.22a4.3,4.3,0,0,1-2.61,1.64,11.12,11.12,0,0,1-4.68-.12,17.88,17.88,0,0,1-3.54-1.27,29.19,29.19,0,0,1-5.49-3.51,46.53,46.53,0,0,1-4.5-4.1,51.09,51.09,0,0,1-3.93-4.56,2.58,2.58,0,0,1,3.54-3.67l.1.07c1.46,1,3,2.1,4.52,3.06s3.06,1.92,4.59,2.73a25.39,25.39,0,0,0,4.46,2,8.68,8.68,0,0,0,1.89.4,1.82,1.82,0,0,0,1-.11l-2.78,1.86c1-1.66,2-3.33,2.94-5,.45-.85.9-1.7,1.3-2.56s.82-1.73,1.22-2.59c.74-1.75,1.44-3.5,2-5.25.29-.87.56-1.75.78-2.61.12-.44.21-.86.3-1.27l.22-1,.12-.56a5.15,5.15,0,0,1,10.16,1.61Z" style="fill: rgb(182, 91, 82); transform-origin: 233.882px 305.113px;" id="el9c0mcgte2lu" class="animable"></path><path d="M249.16,285.31c-6.95,1.15-9.85,6.51-12.13,18.34,2.84,3.69,13.07,5.72,13.07,5.72S255.12,291.71,249.16,285.31Z" style="fill: rgb(64, 123, 255); transform-origin: 244.553px 297.34px;" id="elvbnn0o3h4n" class="animable"></path><g id="elbies46ekyzq"><path d="M249.16,285.31c-6.95,1.15-9.85,6.51-12.13,18.34,2.84,3.69,13.07,5.72,13.07,5.72S255.12,291.71,249.16,285.31Z" style="opacity: 0.3; transform-origin: 244.553px 297.34px;" class="animable"></path></g><path d="M239.58,297.88a104.66,104.66,0,0,0-1,13.89c-.2,6.78-.19,13.46,0,24.62l34,2.33c0-9.64,1.84-20.49,9.43-41.65A8,8,0,0,0,276,286.28c-1.34-.23-2.76-.44-4.22-.61a108.52,108.52,0,0,0-15.46-1.06c-1.69,0-3.45.13-5.13.25C245.11,285.28,240.18,291.9,239.58,297.88Z" style="fill: rgb(64, 123, 255); transform-origin: 260.498px 311.665px;" id="elw6hyht8r45" class="animable"></path><g id="elsxdxx3wk0hf"><path d="M239.58,297.88a104.66,104.66,0,0,0-1,13.89c-.2,6.78-.19,13.46,0,24.62l34,2.33c0-9.64,1.84-20.49,9.43-41.65A8,8,0,0,0,276,286.28c-1.34-.23-2.76-.44-4.22-.61a108.52,108.52,0,0,0-15.46-1.06c-1.69,0-3.45.13-5.13.25C245.11,285.28,240.18,291.9,239.58,297.88Z" style="opacity: 0.2; transform-origin: 260.498px 311.665px;" class="animable"></path></g><path d="M270.28,268.71c-1.59,4.91-2.37,13.36.64,16.9,0,0-4.67-1-15.09,4.47-2.62-4.35-.37-5.53-.37-5.53,5.73-.94,4.8-4.33,4.31-8.23Z" style="fill: rgb(181, 91, 82); transform-origin: 262.741px 279.395px;" id="el8dkktwhdays" class="animable"></path><path d="M258,289c2.9,1,3.65,4.85,3.84,7.16a1.24,1.24,0,0,0,1.83,1c3.4-1.92,8.59-6.38,9.36-11.23a34,34,0,0,1-2.76-2S260.07,287.21,258,289Z" style="fill: rgb(255, 255, 255); transform-origin: 265.515px 290.621px;" id="elab1xj1usl0v" class="animable"></path><path d="M254.92,288.23a14.44,14.44,0,0,0-3.88,5.69.56.56,0,0,1-1.07-.14c-1.06-8,4-9.35,4-9.35a4.23,4.23,0,0,1,3-.23A3.53,3.53,0,0,0,254.92,288.23Z" style="fill: rgb(255, 255, 255); transform-origin: 253.397px 289.144px;" id="eljcyu69gvhvi" class="animable"></path><g id="el81adgeryse7"><path d="M265.59,271.89l-5.84,4.43c.13.89.26,1.77.34,2.58,2-.32,4.92-2.39,5.35-4.44A7.28,7.28,0,0,0,265.59,271.89Z" style="opacity: 0.2; transform-origin: 262.696px 275.395px;" class="animable"></path></g><path d="M277.71,266.26c-3.95,6.73-4.93,8.22-10.29,10.21-8.07,3-16.14-1.4-14.31-9.05,1.64-6.89,7.83-16.74,16.12-16.45A10,10,0,0,1,277.71,266.26Z" style="fill: rgb(181, 91, 82); transform-origin: 266.036px 264.192px;" id="el46ibqlbihr1" class="animable"></path><path d="M256.67,266.32s2.51.28,9,2.58c-1.45,1.69-3.44,2.79-6.77,1.58A3.22,3.22,0,0,1,256.67,266.32Z" style="fill: rgb(38, 50, 56); transform-origin: 261.083px 268.656px;" id="elo1ysbib5a5l" class="animable"></path><path d="M261,269.49a6.44,6.44,0,0,0-4-.34,3.77,3.77,0,0,0,1.88,1.33,6.4,6.4,0,0,0,4,.33A3.72,3.72,0,0,0,261,269.49Z" style="fill: rgb(160, 39, 36); transform-origin: 259.94px 269.983px;" id="el9w58607xza" class="animable"></path><path d="M257,266.37a1.4,1.4,0,0,0,.68,1.33,37.43,37.43,0,0,0,5.94,1.55,1.93,1.93,0,0,0,1.81-.45A57.15,57.15,0,0,0,257,266.37Z" style="fill: rgb(255, 255, 255); transform-origin: 261.212px 267.843px;" id="elmu2eapr9r7k" class="animable"></path><path d="M263.88,251.21c1.59,4.56,9.42,8.43,11.75,8.06-3.6,2.48-4.14,10.55-.85,11.48,7.41-6.56,5.61-16.19,2.7-19S268.16,248.52,263.88,251.21Z" style="fill: rgb(38, 50, 56); transform-origin: 271.944px 260.076px;" id="elfo4r4777oao" class="animable"></path><path d="M278.63,258.76l-3.07-.53a1.08,1.08,0,0,0-1.24.88h0a1.07,1.07,0,0,0,.88,1.24l3.07.53a1.09,1.09,0,0,0,1.24-.88h0A1.07,1.07,0,0,0,278.63,258.76Z" style="fill: rgb(255, 255, 255); transform-origin: 276.915px 259.554px;" id="elwps68722jf" class="animable"></path><path d="M266.64,263.11c-.37.54-1,.82-1.32.61s-.35-.82,0-1.36,1-.82,1.32-.61S267,262.57,266.64,263.11Z" style="fill: rgb(38, 50, 56); transform-origin: 265.982px 262.735px;" id="elyxl8ydse0t" class="animable"></path><path d="M259.73,258.84c-.36.55-1,.82-1.31.61s-.36-.82,0-1.36.95-.82,1.31-.61S260.1,258.3,259.73,258.84Z" style="fill: rgb(38, 50, 56); transform-origin: 259.086px 258.466px;" id="eld8n7zjhmiff" class="animable"></path><path d="M259.88,257.6l-1.07-1.14S258.8,257.88,259.88,257.6Z" style="fill: rgb(38, 50, 56); transform-origin: 259.345px 257.048px;" id="elbly0poew1z8" class="animable"></path><path d="M261.08,261.28a19.24,19.24,0,0,1-4.31,2.33c.28,1.1,1.73,1.5,1.73,1.5Z" style="fill: rgb(160, 39, 36); transform-origin: 258.925px 263.195px;" id="elyih8rfhaqwk" class="animable"></path><path d="M276.72,273.79a6.3,6.3,0,0,1-4.61,1.28c-2.1-.31-2.14-2.52-.7-4.16,1.29-1.47,3.94-3.09,5.64-2S278.38,272.5,276.72,273.79Z" style="fill: rgb(181, 91, 82); transform-origin: 274.288px 271.834px;" id="elg8u31brfc6" class="animable"></path><path d="M269.7,259.9a.33.33,0,0,1-.19-.22,2.8,2.8,0,0,0-1.82-1.93.35.35,0,0,1-.25-.46.42.42,0,0,1,.49-.26,3.52,3.52,0,0,1,2.33,2.42.39.39,0,0,1-.28.47A.38.38,0,0,1,269.7,259.9Z" style="fill: rgb(38, 50, 56); transform-origin: 268.845px 258.478px;" id="eloopb9wceek" class="animable"></path><path d="M259.62,254.58a.3.3,0,0,1-.21-.17.37.37,0,0,1,.18-.5,4,4,0,0,1,3.55-.14.34.34,0,0,1,.13.5.4.4,0,0,1-.53.15,3.21,3.21,0,0,0-2.82.14A.4.4,0,0,1,259.62,254.58Z" style="fill: rgb(38, 50, 56); transform-origin: 261.352px 254.011px;" id="elrqab8rf36gm" class="animable"></path><path d="M266.79,261.87l-1.08-1.14S265.71,262.14,266.79,261.87Z" style="fill: rgb(38, 50, 56); transform-origin: 266.25px 261.317px;" id="el82oiynin0lk" class="animable"></path><path d="M212.09,300.78l2.18-.42a2.59,2.59,0,0,1,2.28.67l2.83,2.69a4.85,4.85,0,0,1,1.45,4.19l-.14.95c-3.58.95-8.14-.66-8.14-.66l-1.35-.32a2.16,2.16,0,0,1-1.68-2.56l.59-2.68A2.49,2.49,0,0,1,212.09,300.78Z" style="fill: rgb(181, 91, 82); transform-origin: 215.176px 304.736px;" id="el3xedo2hpbst" class="animable"></path><path d="M243.57,324.87l-.26,7.07a.43.43,0,0,0,.41.45.42.42,0,0,0,.44-.41l.26-7.08a.43.43,0,0,0-.41-.44A.43.43,0,0,0,243.57,324.87Z" style="fill: rgb(64, 123, 255); transform-origin: 243.865px 328.425px;" id="elkac5w8amuo" class="animable"></path><g id="elavox3pk0a4r"><path d="M243.57,324.87l-.26,7.07a.43.43,0,0,0,.41.45.42.42,0,0,0,.44-.41l.26-7.08a.43.43,0,0,0-.41-.44A.43.43,0,0,0,243.57,324.87Z" style="fill: rgb(255, 255, 255); opacity: 0.7; transform-origin: 243.865px 328.425px;" class="animable"></path></g><path d="M243.8,330.29c2.6.1,4.67,1.11,4.63,2.27s-2.18,2-4.78,1.92-4.68-1.11-4.64-2.26S241.2,330.2,243.8,330.29Z" style="fill: rgb(64, 123, 255); transform-origin: 243.72px 332.384px;" id="elcr33kch5gxh" class="animable"></path><g id="eln25be2uri8"><path d="M243.8,330.29c2.6.1,4.67,1.11,4.63,2.27s-2.18,2-4.78,1.92-4.68-1.11-4.64-2.26S241.2,330.2,243.8,330.29Z" style="opacity: 0.4; transform-origin: 243.72px 332.384px;" class="animable"></path></g><g id="elnsz1iwa53nq"><path d="M237.75,335.56h10a1.53,1.53,0,0,1,1.53,1.53v2.62a1.53,1.53,0,0,1-1.53,1.53h-10a0,0,0,0,1,0,0v-5.68a0,0,0,0,1,0,0Z" style="fill: rgb(64, 123, 255); transform-origin: 243.515px 338.4px; transform: rotate(-87.92deg);" class="animable"></path></g><path d="M243.37,342.05c2.6.09,4.68,1.11,4.64,2.26s-2.19,2-4.79,1.92-4.68-1.1-4.64-2.26S240.77,342,243.37,342.05Z" style="fill: rgb(64, 123, 255); transform-origin: 243.295px 344.142px;" id="elezl1ln5z4pa" class="animable"></path><g id="elwvzf3g0q18"><path d="M243.37,342.05c2.6.09,4.68,1.11,4.64,2.26s-2.19,2-4.79,1.92-4.68-1.1-4.64-2.26S240.77,342,243.37,342.05Z" style="opacity: 0.4; transform-origin: 243.295px 344.142px;" class="animable"></path></g><path d="M242.85,344.55l-.25,7.08a.42.42,0,0,0,.41.44.43.43,0,0,0,.44-.41l.26-7.08a.43.43,0,0,0-.86,0Z" style="fill: rgb(64, 123, 255); transform-origin: 243.155px 348.11px;" id="elzrjyr3pdjue" class="animable"></path><g id="els57xtt2zl4"><path d="M242.85,344.55l-.25,7.08a.42.42,0,0,0,.41.44.43.43,0,0,0,.44-.41l.26-7.08a.43.43,0,0,0-.86,0Z" style="fill: rgb(255, 255, 255); opacity: 0.7; transform-origin: 243.155px 348.11px;" class="animable"></path></g><path d="M244.18,341.1c-.2-.22-20.12-22.28-30.19-36.47l-.06-.11c-5.6-14.6-28.44-33.41-50.54-51.6-21.47-17.68-41.75-34.38-46.87-47.23l1-.38c5,12.61,25.2,29.23,46.57,46.82,22.16,18.25,45.08,37.12,50.82,52,10,14.15,29.87,36.11,30.07,36.33Z" style="fill: rgb(64, 123, 255); transform-origin: 180.75px 273.205px;" id="elij4mi3dcz1" class="animable"></path><path d="M218.36,305c-1.33-3.34-4.55-3.59-7-4.57-.41-.17-1.21.7-.78,1.38a3.74,3.74,0,0,0,2.25,1.81,4.88,4.88,0,0,0,1.17,2.9,2.5,2.5,0,0,0,4.33-1.49Z" style="fill: rgb(181, 91, 82); transform-origin: 214.408px 303.867px;" id="el2ab9sh4r5gb" class="animable"></path><path d="M71.51,141.17a109.87,109.87,0,0,0-9.69,57.41c15.82,0,35.74,4,57.41,9.69,1.74-22.34,4.51-42.46,9.69-57.41A109.83,109.83,0,0,0,71.51,141.17Z" style="fill: rgb(64, 123, 255); transform-origin: 95.0903px 174.44px;" id="elxnggpvxx3z" class="animable"></path><g id="elav7lzfeh2y"><path d="M71.51,141.17a109.87,109.87,0,0,0-9.69,57.41c15.82,0,35.74,4,57.41,9.69,1.74-22.34,4.51-42.46,9.69-57.41A109.83,109.83,0,0,0,71.51,141.17Z" style="opacity: 0.3; transform-origin: 95.0903px 174.44px;" class="animable"></path></g><g id="eldtc3x5f0r4"><path d="M81.66,155.44a45.17,45.17,0,0,0-4,23.6c6.5,0,14.69,1.64,23.59,4,.72-9.18,1.86-17.45,4-23.59A45.25,45.25,0,0,0,81.66,155.44Z" style="fill: rgb(64, 123, 255); opacity: 0.7; transform-origin: 91.3416px 169.129px;" class="animable"></path></g><path d="M109.7,166.05a.32.32,0,0,1-.23-.09.41.41,0,0,1-.07-.11.25.25,0,0,1,0-.12.32.32,0,0,1,.09-.23.28.28,0,0,1,.11-.08.36.36,0,0,1,.25,0,.58.58,0,0,1,.18.18.51.51,0,0,1,0,.13.3.3,0,0,1-.1.23l-.1.07Z" style="fill: rgb(255, 255, 255); transform-origin: 109.713px 165.724px;" id="elevjf2gmpl1a" class="animable"></path><path d="M105.11,164.23h0a.34.34,0,0,1-.21-.42h0a.34.34,0,0,1,.42-.21h0a.32.32,0,0,1,.2.41h0a.31.31,0,0,1-.31.22h-.1Zm-4.63-1.31a.33.33,0,0,1-.25-.39h0a.33.33,0,0,1,.4-.25h0a.33.33,0,0,1,.24.4h0a.32.32,0,0,1-.32.25h-.07Zm-4.74-.78a.34.34,0,0,1-.29-.37h0a.32.32,0,0,1,.36-.28h0a.32.32,0,0,1,.29.36h0a.32.32,0,0,1-.32.29h0Zm-5.12-.61a.32.32,0,0,1,.33-.32h0a.33.33,0,0,1,.32.33h0a.32.32,0,0,1-.32.33h0A.33.33,0,0,1,90.62,161.53Z" style="fill: rgb(255, 255, 255); transform-origin: 98.0791px 162.72px;" id="el416p1gs0bj2" class="animable"></path><path d="M86.11,162.07a.33.33,0,0,1-.23-.1.39.39,0,0,1-.08-.1.59.59,0,0,1,0-.13.5.5,0,0,1,0-.12.44.44,0,0,1,.08-.11.34.34,0,0,1,.46,0,.41.41,0,0,1,.07.11.24.24,0,0,1,0,.12.33.33,0,0,1-.1.23.26.26,0,0,1-.11.07A.27.27,0,0,1,86.11,162.07Z" style="fill: rgb(255, 255, 255); transform-origin: 86.107px 161.745px;" id="el61oj9kp305d" class="animable"></path><path d="M81.56,180.5a.33.33,0,0,1,.33-.33h0a.32.32,0,0,1,.32.33h0a.33.33,0,0,1-.33.33h0A.32.32,0,0,1,81.56,180.5Zm.58-4.5a.34.34,0,0,1-.29-.37h0a.33.33,0,0,1,.36-.29h0a.34.34,0,0,1,.29.37h0a.33.33,0,0,1-.33.29h0Zm.78-4.78a.33.33,0,0,1-.24-.39h0a.32.32,0,0,1,.39-.25h0a.33.33,0,0,1,.25.39h0a.34.34,0,0,1-.33.26h-.07Zm1.29-4.66a.33.33,0,0,1-.2-.42h0a.33.33,0,0,1,.42-.2h0a.32.32,0,0,1,.2.41h0a.32.32,0,0,1-.31.22h-.11Z" style="fill: rgb(255, 255, 255); transform-origin: 83.1041px 173.376px;" id="elosu7e57ep6d" class="animable"></path><path d="M82.12,185.66a.33.33,0,0,1-.23-.09.34.34,0,0,1-.1-.23.37.37,0,0,1,.1-.24.36.36,0,0,1,.46,0,.37.37,0,0,1,.1.24.3.3,0,0,1-.1.23l-.1.07A.27.27,0,0,1,82.12,185.66Z" style="fill: rgb(255, 255, 255); transform-origin: 82.12px 185.339px;" id="eltgc1zb4o6qb" class="animable"></path><g id="el3lg1ib7wzhf"><path d="M114.94,202.24c-2.24-7.11-.78-21.82,2-26.35C117.34,181.51,114.24,193,114.94,202.24Z" style="opacity: 0.1; transform-origin: 115.41px 189.065px;" class="animable"></path></g><g id="elim55tsiyrkp"><path d="M114.28,201.14c-8.53-3.65-22.81-13.78-28.13-17.72C100.46,189.13,105,194.29,114.28,201.14Z" style="opacity: 0.1; transform-origin: 100.215px 192.28px;" class="animable"></path></g><g id="el9bb6iabeq0n"><path d="M69.3,171.77c-2-5.92-.87-18.24,1.43-22.07C71.11,154.4,68.62,164,69.3,171.77Z" style="opacity: 0.1; transform-origin: 69.5176px 160.735px;" class="animable"></path></g><g id="elp21c82mt8f"><path d="M75.22,142.4c5.45.82,11.42,5.07,14.72,5.6C87.87,145,79.72,141.64,75.22,142.4Z" style="opacity: 0.1; transform-origin: 82.58px 145.146px;" class="animable"></path></g><g id="elm0fm09tw60o"><path d="M113.52,203.25c-28.4-12.62-39.95-11.91-39.95-11.91S104,190.61,113.52,203.25Z" style="opacity: 0.1; transform-origin: 93.545px 197.291px;" class="animable"></path></g><path d="M63.54,197.56a.33.33,0,0,1-.17,0,.32.32,0,0,1-.11-.45C77.19,173.65,98.64,158.4,127,151.73a.33.33,0,1,1,.15.64C99,159,77.66,174.14,63.82,197.4A.33.33,0,0,1,63.54,197.56Z" style="fill: rgb(255, 255, 255); transform-origin: 95.3216px 174.642px;" id="el5y9qeq1lhus" class="animable"></path><path d="M113.42,200.43a.34.34,0,0,1-.27-.13L73.3,144.24a.31.31,0,0,1,.08-.45.33.33,0,0,1,.45.07l39.86,56.06a.32.32,0,0,1-.08.45A.33.33,0,0,1,113.42,200.43Z" style="fill: rgb(255, 255, 255); transform-origin: 93.4929px 172.081px;" id="elcqay3mjriob" class="animable"></path><path d="M112.25,199.18l-3,17.77a.59.59,0,0,0,1,.5,61.49,61.49,0,0,1,20.59-14.65.58.58,0,0,0-.14-1.1l-17.78-3A.58.58,0,0,0,112.25,199.18Z" style="fill: rgb(64, 123, 255); transform-origin: 120.213px 208.157px;" id="el2of7tl36mpc" class="animable"></path><g id="eluqaflypvp2d"><path d="M112.25,199.18l-3,17.77a.59.59,0,0,0,1,.5,61.49,61.49,0,0,1,20.59-14.65.58.58,0,0,0-.14-1.1l-17.78-3A.58.58,0,0,0,112.25,199.18Z" style="fill: rgb(255, 255, 255); opacity: 0.3; transform-origin: 120.213px 208.157px;" class="animable"></path></g><path d="M239.06,334.13l2-1.2a3,3,0,0,1,2.62-.18l4.17,1.59a5.91,5.91,0,0,1,3.53,3.54l.33,1c-3.12,2.22-8.5,2.32-8.5,2.32l-1.51.18a2.69,2.69,0,0,1-3-1.88l-.73-2.83A2.27,2.27,0,0,1,239.06,334.13Z" style="fill: rgb(181, 91, 82); transform-origin: 244.805px 336.972px;" id="elojum12goap" class="animable"></path><path d="M283.15,303c-.23,2.24-.57,4.32-.91,6.46s-.77,4.24-1.25,6.34-1,4.21-1.56,6.3-1.22,4.17-1.9,6.24l-.11.34a4.22,4.22,0,0,1-2.11,2.45c-2.2,1.11-4.4,2-6.6,2.9s-4.42,1.61-6.63,2.34-4.45,1.36-6.69,1.95-4.49,1.13-6.8,1.58A2.58,2.58,0,0,1,247,335h0l6.1-2.94,6.08-2.94c2-1,4-2,5.95-3s3.85-2.09,5.65-3.17l-2.22,2.79c.91-3.93,1.68-7.93,2.39-11.95l1-6.05c.34-2,.62-4.07.92-6l0-.09A5.17,5.17,0,0,1,283.15,303Z" style="fill: rgb(182, 91, 82); transform-origin: 264.275px 318.567px;" id="el7qm5ig2wlc" class="animable"></path><path d="M278.69,287.25c6.09,3.54,6.9,9.57,4.84,21.44-3.95,2.45-14.24.72-14.24.72S270.86,291.12,278.69,287.25Z" style="fill: rgb(64, 123, 255); transform-origin: 276.919px 298.626px;" id="el5tl1hs19crw" class="animable"></path><g id="eljcsmfz4olbj"><path d="M278.69,287.25c6.09,3.54,6.9,9.57,4.84,21.44-3.95,2.45-14.24.72-14.24.72S270.86,291.12,278.69,287.25Z" style="opacity: 0.2; transform-origin: 276.919px 298.626px;" class="animable"></path></g><path d="M290.69,380.8a1.27,1.27,0,0,1-1.27-1.28V348a1.48,1.48,0,0,1,0-.21l7.61-46a1.27,1.27,0,0,1,1.25-1.07h9.76a1.28,1.28,0,1,1,0,2.55h-8.68L292,348.08v31.44A1.27,1.27,0,0,1,290.69,380.8Z" style="fill: rgb(38, 50, 56); transform-origin: 299.425px 340.758px;" id="el1n1kftnzyb6" class="animable"></path><path d="M290.69,349.18c12.34,0,22.39,13.9,22.39,31s-10.05,31-22.39,31-22.39-13.9-22.39-31,10-31,22.39-31m0-5.09c-15.18,0-27.48,16.15-27.48,36.07s12.3,36.08,27.48,36.08,27.48-16.16,27.48-36.08-12.3-36.07-27.48-36.07Z" style="fill: rgb(38, 50, 56); transform-origin: 290.69px 380.165px;" id="elw0ryitfnbvj" class="animable"></path><path d="M250.76,401.44c1.54,0,3.27,2.35,3.27,5.49s-1.73,5.49-3.27,5.49-3.27-2.35-3.27-5.49,1.72-5.49,3.27-5.49m0-3.82c-3.92,0-7.09,4.17-7.09,9.31s3.17,9.31,7.09,9.31,7.09-4.17,7.09-9.31-3.18-9.31-7.09-9.31Z" style="fill: rgb(38, 50, 56); transform-origin: 250.76px 406.93px;" id="elrt6wb0kpaoi" class="animable"></path><path d="M294.26,380.16c0-2.59-1.6-4.69-3.57-4.69s-3.57,2.1-3.57,4.69,1.6,4.69,3.57,4.69S294.26,382.75,294.26,380.16Z" style="fill: rgb(38, 50, 56); transform-origin: 290.69px 380.16px;" id="elez5b5a0grub" class="animable"></path><path d="M293.55,347c13.75,0,24.94,14.86,24.94,33.13s-11.19,33.13-24.94,33.13-24.93-14.86-24.93-33.13S279.8,347,293.55,347m0-1.27c-14.47,0-26.2,15.4-26.2,34.4s11.73,34.4,26.2,34.4,26.21-15.4,26.21-34.4-11.73-34.4-26.21-34.4Z" style="fill: rgb(224, 224, 224); transform-origin: 293.555px 380.13px;" id="el5c6gmegp1jd" class="animable"></path><path d="M290.69,363.68H250.76a1.28,1.28,0,0,1,0-2.55h39.93a1.28,1.28,0,0,1,0,2.55Z" style="fill: rgb(38, 50, 56); transform-origin: 270.725px 362.405px;" id="el37a3s1cy88y" class="animable"></path><path d="M250.76,408.2a1.27,1.27,0,0,1-1.27-1.27V353.4a21.32,21.32,0,0,1,21.3-21.3H293.1a1.27,1.27,0,1,1,0,2.54H270.79A18.79,18.79,0,0,0,252,353.4v53.53A1.27,1.27,0,0,1,250.76,408.2Z" style="fill: rgb(38, 50, 56); transform-origin: 271.93px 370.15px;" id="el3rpymbvf2ls" class="animable"></path><path d="M219.15,401.06a1.93,1.93,0,0,1-1.31-.51,1.91,1.91,0,0,1-.09-2.7L234.35,380a13.93,13.93,0,0,1,10.18-4.43h6.23a1.91,1.91,0,1,1,0,3.82h-6.23a10.12,10.12,0,0,0-7.38,3.21l-16.61,17.83A1.89,1.89,0,0,1,219.15,401.06Z" style="fill: rgb(38, 50, 56); transform-origin: 234.952px 388.315px;" id="el9rtlq4z30df" class="animable"></path></g><g id="freepik--character-2--inject-1" class="animable" style="transform-origin: 247.503px 225.035px;"><polygon points="326.1 395.69 338.08 393.16 339.92 407.39 329.92 409.52 326.1 395.69" style="fill: rgb(255, 139, 123); transform-origin: 333.01px 401.34px;" id="eleucbi77ashl" class="animable"></polygon><g id="elc5bw5jjhsrs"><polygon points="326.1 395.7 338.09 393.17 339.12 401.13 328.24 403.44 326.1 395.7" style="opacity: 0.2; transform-origin: 332.61px 398.305px;" class="animable"></polygon></g><path d="M332.83,341.49c4-18.44,12.14-37.7,4.41-55.26l-34-.11s-1.38,35.61,3.79,57.4c4.08,17.27,19.16,57.8,19.16,57.8l13.62-3S338.88,358.85,332.83,341.49Z" style="fill: rgb(64, 123, 255); transform-origin: 321.763px 343.72px;" id="elgka89hdni7d" class="animable"></path><g id="elhi3gi5g8i5"><path d="M332.83,341.49c4-18.44,12.14-37.7,4.41-55.26l-34-.11s-1.38,35.61,3.79,57.4c4.08,17.27,19.16,57.8,19.16,57.8l13.62-3S338.88,358.85,332.83,341.49Z" style="opacity: 0.2; transform-origin: 321.763px 343.72px;" class="animable"></path></g><g id="elbeoeyw5hgba"><path d="M333.21,339.74c2.43-10.68,6.06-21.6,7-32.27C327.34,293.42,329,322.08,333.21,339.74Z" style="opacity: 0.2; transform-origin: 335.176px 321.729px;" class="animable"></path></g><path d="M342.58,411.34l-3.14.7-.91-.9-1.14,1.37-5.77,2.5a16.83,16.83,0,0,1-6.7,1.39h-4.74a7.26,7.26,0,0,1,.76-3.66,11.16,11.16,0,0,0,6.93-4.6,1.6,1.6,0,0,1,1.35-.6c2.18-.05,7.92-.37,10.79-2.25a.5.5,0,0,1,.74.32A37.86,37.86,0,0,0,342.58,411.34Z" style="fill: rgb(38, 50, 56); transform-origin: 331.374px 410.811px;" id="el84497p2je6u" class="animable"></path><polygon points="353.3 397.45 365.49 397.57 366.03 411.94 355.84 411.86 353.3 397.45" style="fill: rgb(255, 139, 123); transform-origin: 359.665px 404.695px;" id="ellonrwibqfy" class="animable"></polygon><g id="elw9mmn2mak0k"><polygon points="353.31 397.46 365.5 397.58 365.8 405.63 354.73 405.53 353.31 397.46" style="opacity: 0.2; transform-origin: 359.555px 401.545px;" class="animable"></polygon></g><path d="M366.56,341.49c1-18.44,2.32-46-3.86-54.52l-38-.85s10.56,40.39,14.5,57.4c4.09,17.7,14.13,59.54,14.13,59.54l13.18,0S371.51,362.55,366.56,341.49Z" style="fill: rgb(64, 123, 255); transform-origin: 346.724px 344.59px;" id="el1bsicn49l7p" class="animable"></path><g id="elerb0j1fz3vh"><path d="M366.56,341.49c1-18.44,2.32-46-3.86-54.52l-38-.85s10.56,40.39,14.5,57.4c4.09,17.7,14.13,59.54,14.13,59.54l13.18,0S371.51,362.55,366.56,341.49Z" style="opacity: 0.2; transform-origin: 346.724px 344.59px;" class="animable"></path></g><path d="M318.28,231.17l-.56.5-.43.36-.81.65c-.54.41-1.08.79-1.62,1.16a35,35,0,0,1-3.31,2,39.08,39.08,0,0,1-7.1,2.95c-1.23.38-2.48.69-3.75,1s-2.56.43-3.86.56a36.23,36.23,0,0,1-7.79-.1l-.92-.1-.11,0a26.89,26.89,0,0,1-6.26-2.54,32.74,32.74,0,0,1-5.1-3.5,37.9,37.9,0,0,1-4.19-4.11c-.64-.73-1.23-1.49-1.81-2.26l-.83-1.19-.84-1.3a4.29,4.29,0,0,1,1.31-5.92,4.24,4.24,0,0,1,3.76-.42l1.07.39c.26.1.66.31,1,.47l1.07.52c.7.36,1.42.69,2.12,1,1.41.65,2.8,1.26,4.17,1.77a34.39,34.39,0,0,0,4,1.25,17.7,17.7,0,0,0,3.48.52l-1-.12a30.69,30.69,0,0,0,4.6-.65,33.73,33.73,0,0,0,4.45-1.4,36.36,36.36,0,0,0,4.27-2.05c.69-.38,1.36-.8,2-1.21l.93-.62.42-.29.18-.12.07,0h0s0,0,0,.05a8.62,8.62,0,1,1,11.49,12.86Z" style="fill: rgb(255, 139, 123); transform-origin: 294.788px 228.37px;" id="elz5vw3pbe9ar" class="animable"></path><path d="M275.42,219.37l-.55,5.11c-2.43,4.81-8.07.61-8.07.61l-5.14-1.26a2.72,2.72,0,0,1-1.83-3l.36-3.57a2.83,2.83,0,0,1,2.86-2.72l4.77.62a5.6,5.6,0,0,1,2.59.91Z" style="fill: rgb(255, 139, 123); transform-origin: 267.609px 220.664px;" id="elduumnb4f7r9" class="animable"></path><path d="M322.42,211.05c-8.23-.48-20.3,9-20.3,9-1.14,3.15,1.67,14.88,6.71,20,0,0,5.79,1.38,10.84-4.73C325.18,228.66,331.15,211.56,322.42,211.05Z" style="fill: rgb(64, 123, 255); transform-origin: 314.355px 225.608px;" id="elhx0dlt64y5" class="animable"></path><g id="elf4v6qlo9v7q"><g style="opacity: 0.5; transform-origin: 314.355px 225.608px;" class="animable"><path d="M322.42,211.05c-8.23-.48-20.3,9-20.3,9-1.14,3.15,1.67,14.88,6.71,20,0,0,5.79,1.38,10.84-4.73C325.18,228.66,331.15,211.56,322.42,211.05Z" style="fill: rgb(255, 255, 255); transform-origin: 314.355px 225.608px;" id="elb618xqgrk" class="animable"></path></g></g><path d="M324.06,210.79a153.2,153.2,0,0,1,33.87.53,11.44,11.44,0,0,1,9.51,13.61c-5.27,26.52-1.33,56.11-4.74,62,0,0-37.56.66-59.45-.85-6-28.78,5.79-46.4,11.72-68.88C316,213.4,320.11,211.2,324.06,210.79Z" style="fill: rgb(38, 50, 56); transform-origin: 334.633px 248.585px;" id="el2q5dief2wgv" class="animable"></path><path d="M332.42,222.2c-.16,1-.67,1.73-1.14,1.73s-.73-.77-.57-1.73.67-1.73,1.14-1.73S332.58,221.25,332.42,222.2Z" style="fill: rgb(255, 255, 255); transform-origin: 331.565px 222.2px;" id="eloc1rxn2ub5m" class="animable"></path><path d="M369.94,221.87l.83,1,.74,1c.48.63.93,1.28,1.38,1.92.9,1.28,1.73,2.6,2.55,3.94a69.16,69.16,0,0,1,4.36,8.49,48.78,48.78,0,0,1,3.06,9.6,31.58,31.58,0,0,1,.41,11.27l-.09.58a2.47,2.47,0,0,1-.06.29,45.11,45.11,0,0,1-2.91,7.15,50,50,0,0,1-3.8,6.31,56.89,56.89,0,0,1-4.49,5.59c-.8.88-1.63,1.72-2.48,2.55s-1.72,1.58-2.75,2.43a4.33,4.33,0,0,1-6.69-5.14l.18-.39,1.27-2.76c.44-.94.85-1.89,1.27-2.83.82-1.88,1.6-3.76,2.29-5.63s1.27-3.73,1.81-5.54a48.58,48.58,0,0,0,1.14-5.3l-.15.87a20.11,20.11,0,0,0-.95-5.59,30.3,30.3,0,0,0-1.15-3.15c-.42-1.07-.91-2.15-1.46-3.24-1.08-2.16-2.31-4.34-3.65-6.48-.66-1.08-1.37-2.14-2.06-3.19l-1.07-1.56-1-1.39-.31-.44a8.62,8.62,0,0,1,13.77-10.35Z" style="fill: rgb(255, 139, 123); transform-origin: 369.113px 251.844px;" id="elmcc6ckw1ow" class="animable"></path><path d="M360.85,212.14c7.76,2.78,15.09,15.93,15.09,15.93-.37,4.79-7.95,15.63-13.35,18a26.66,26.66,0,0,1-8-12.17C352.08,225.62,356.85,213.33,360.85,212.14Z" style="fill: rgb(64, 123, 255); transform-origin: 364.916px 229.105px;" id="elx3piq26het" class="animable"></path><g id="el4u72hvfr0wl"><g style="opacity: 0.5; transform-origin: 364.916px 229.105px;" class="animable"><path d="M360.85,212.14c7.76,2.78,15.09,15.93,15.09,15.93-.37,4.79-7.95,15.63-13.35,18a26.66,26.66,0,0,1-8-12.17C352.08,225.62,356.85,213.33,360.85,212.14Z" style="fill: rgb(255, 255, 255); transform-origin: 364.916px 229.105px;" id="elzkxbt0vvvu" class="animable"></path></g></g><path d="M329.4,212.74a7.08,7.08,0,0,1,3.41-3.23,6.67,6.67,0,0,0,.12-4.46l16.68-5.31c-1.35,5.52-2.4,9.87-.35,12.55-3.28,2-9.29,5.6-15.84,5.41S328.33,215.05,329.4,212.74Z" style="fill: rgb(255, 139, 123); transform-origin: 339.038px 208.724px;" id="el7o3gk63aa7o" class="animable"></path><g id="elu9kwajwzgwf"><path d="M333.06,205.57l12.52-.74c-3.91,4.19-9.85,5.76-12.56,4.06A6.51,6.51,0,0,0,333.06,205.57Z" style="opacity: 0.2; transform-origin: 339.3px 207.197px;" class="animable"></path></g><path d="M333,217.69l2.71-2.26,3.64,1.83S337.05,219.43,333,217.69Z" style="fill: rgb(64, 123, 255); transform-origin: 336.175px 216.898px;" id="el53e7tsyl2b4" class="animable"></path><path d="M334.48,179.9c-3.39,5.73,1.58,13.19,7.2,6.59S337.82,174.25,334.48,179.9Z" style="fill: rgb(224, 224, 224); transform-origin: 338.398px 183.327px;" id="elqx2xe5u1k3" class="animable"></path><path d="M353.86,193.05c-2.8,6.9-4.86,11.53-10.28,13.23-10.76,3.37-14.77-2-14.27-9.56.46-6.82,5-17,13.36-17.54S356.66,186.14,353.86,193.05Z" style="fill: rgb(255, 139, 123); transform-origin: 341.927px 193.23px;" id="elkaaoaxrkb0g" class="animable"></path><path d="M352,198.33c-6.2-.73-4-10.37-.9-11.55-2.85-.37-4.84-3.74-3.67-5.13-6.31.45-15.41-1.13-10.65-6.76,3.47-4.1,12.85-3.21,14.32-.23-1.92,1.52-.76,3.15,3.38,3.78,6.7,1,7.82,5.72,3.77,7C364.08,187.29,361.55,199.86,352,198.33Z" style="fill: rgb(224, 224, 224); transform-origin: 348.406px 185.287px;" id="el4xheubrfonr" class="animable"></path><path d="M357.55,185.29c2,.21,5.05-1.27,4.71-3.58C364.54,185.14,362,187.46,357.55,185.29Z" style="fill: rgb(224, 224, 224); transform-origin: 360.331px 183.921px;" id="el7o319j5tq7y" class="animable"></path><g id="elmb11x3gmo5"><path d="M342.35,190.84a3.72,3.72,0,0,1,2.73.7A7.2,7.2,0,0,1,342.35,190.84Z" style="opacity: 0.2; transform-origin: 343.715px 191.172px;" class="animable"></path></g><g id="elqx4j7tjk5pb"><path d="M342.23,191.5a3,3,0,0,1,2.23,1.23A5.91,5.91,0,0,1,342.23,191.5Z" style="opacity: 0.2; transform-origin: 343.345px 192.115px;" class="animable"></path></g><g id="elxgzo4qt325"><path d="M337,182.57a34,34,0,0,1,6.88,1.51C340,183.38,337,182.57,337,182.57Z" style="opacity: 0.2; transform-origin: 340.44px 183.325px;" class="animable"></path></g><g id="elnebetxuke5j"><path d="M335.84,183.09s5.26,1.2,7.59,2.63A62.15,62.15,0,0,1,335.84,183.09Z" style="opacity: 0.2; transform-origin: 339.635px 184.405px;" class="animable"></path></g><path d="M354.36,201.57a7.53,7.53,0,0,1-5.51,1.78c-2.65-.24-3.06-2.85-1.55-4.87,1.35-1.82,4.37-3.88,6.67-2.64A3.44,3.44,0,0,1,354.36,201.57Z" style="fill: rgb(255, 139, 123); transform-origin: 351.072px 199.419px;" id="eldyvii19pr4" class="animable"></path><path d="M340.07,190.49c-.2.63-.68,1-1.09.9s-.58-.74-.38-1.36.67-1,1.08-.89S340.26,189.87,340.07,190.49Z" style="fill: rgb(38, 50, 56); transform-origin: 339.332px 190.264px;" id="elxncvpj6s1lj" class="animable"></path><path d="M333.59,188.67c-.19.62-.68,1-1.08.89s-.58-.73-.39-1.36.68-1,1.08-.89S333.78,188.05,333.59,188.67Z" style="fill: rgb(38, 50, 56); transform-origin: 332.855px 188.435px;" id="el48d3ffd7h6n" class="animable"></path><path d="M335.58,189.83,334,195.06a5.8,5.8,0,0,1-1.85-.48.71.71,0,0,1,0-1.26A12.8,12.8,0,0,0,335.58,189.83Z" style="fill: rgb(255, 86, 82); transform-origin: 333.674px 192.445px;" id="elauggw1hy1u9" class="animable"></path><path d="M343.92,189.74a.41.41,0,0,0,.19,0,.38.38,0,0,0,.23-.49,3.8,3.8,0,0,0-2.5-2.45.37.37,0,0,0-.46.28.39.39,0,0,0,.28.46h0a3.06,3.06,0,0,1,2,2A.35.35,0,0,0,343.92,189.74Z" style="fill: rgb(224, 224, 224); transform-origin: 342.867px 188.269px;" id="elrg7beauyvc" class="animable"></path><path d="M331.63,186.21a.39.39,0,0,0,.36-.07,3,3,0,0,1,2.66-.7.38.38,0,1,0,.21-.73,3.76,3.76,0,0,0-3.37.84.38.38,0,0,0,0,.54A.36.36,0,0,0,331.63,186.21Z" style="fill: rgb(224, 224, 224); transform-origin: 333.262px 185.417px;" id="elz5130vaekgb" class="animable"></path><path d="M333,217.69,330,214.94l-3.91,1.16S328,218.65,333,217.69Z" style="fill: rgb(64, 123, 255); transform-origin: 329.545px 216.423px;" id="elhn2ey980bqs" class="animable"></path><path d="M332.81,209.51s-2.72,3.15-2.85,5.43c-3.28.93-4.86,5.73-4.86,5.73s-.6-6.87,4.55-10.57A5.48,5.48,0,0,1,332.81,209.51Z" style="fill: rgb(64, 123, 255); transform-origin: 328.944px 215.072px;" id="elqr3dml76q7n" class="animable"></path><g id="el80oq6dta1fi"><path d="M332.81,209.51s-2.72,3.15-2.85,5.43c-3.28.93-4.86,5.73-4.86,5.73s-.6-6.87,4.55-10.57A5.48,5.48,0,0,1,332.81,209.51Z" style="fill: rgb(255, 255, 255); opacity: 0.5; transform-origin: 328.944px 215.072px;" class="animable"></path></g><path d="M348.11,208.57s-5.37,6.53-12.38,6.86c4.08,1.93,4.77,6.51,4.77,6.51s8.74-2.66,10.39-12A3.43,3.43,0,0,0,348.11,208.57Z" style="fill: rgb(64, 123, 255); transform-origin: 343.31px 215.255px;" id="el7zdtfdi399h" class="animable"></path><g id="el3hkzzkt6pqh"><path d="M348.11,208.57s-5.37,6.53-12.38,6.86c4.08,1.93,4.77,6.51,4.77,6.51s8.74-2.66,10.39-12A3.43,3.43,0,0,0,348.11,208.57Z" style="fill: rgb(255, 255, 255); opacity: 0.5; transform-origin: 343.31px 215.255px;" class="animable"></path></g><path d="M367.75,416.39H365.1l-.72-1.07L363,416.4H347a7.1,7.1,0,0,1,.68-3.66s4.78-.43,6.62-2.82a.59.59,0,0,1,.59-.23c1.59.33,7.91,1.53,11.4.27a.58.58,0,0,1,.78.53A38.31,38.31,0,0,0,367.75,416.39Z" style="fill: rgb(38, 50, 56); transform-origin: 357.363px 413.039px;" id="el0iuaroyaxf6a" class="animable"></path><path d="M330.7,196.68s2.78.1,10.15,2.08c-1.46,2-3.55,3.36-7.32,2.31A3.55,3.55,0,0,1,330.7,196.68Z" style="fill: rgb(38, 50, 56); transform-origin: 335.718px 199.057px;" id="el20zbp11p7gc" class="animable"></path><path d="M335.75,199.8a7.06,7.06,0,0,0-4.4,0,4.21,4.21,0,0,0,2.18,1.3,7.1,7.1,0,0,0,4.39,0A4.11,4.11,0,0,0,335.75,199.8Z" style="fill: rgb(255, 86, 82); transform-origin: 334.635px 200.448px;" id="elwcfauv60noj" class="animable"></path><path d="M331.05,196.71a1.58,1.58,0,0,0,.86,1.41,41.82,41.82,0,0,0,6.67,1.2,2.15,2.15,0,0,0,1.95-.64A62.78,62.78,0,0,0,331.05,196.71Z" style="fill: rgb(255, 255, 255); transform-origin: 335.79px 198.032px;" id="el78d6r7q63h" class="animable"></path><path d="M269,222.88l-3.11-2.67a29.89,29.89,0,0,1-4.49-4.74c-5.11-4.4-12.76-9-20.74-13.78-16.62-10-35.47-21.29-41.06-35.86l1-.37c5.46,14.25,24.15,25.47,40.64,35.36,7.06,4.24,13.52,8.11,18.42,11.87-5.7-10.36-1.51-22,2.88-34.26,3.59-10,7.3-20.37,6.16-31l1-.11c1.17,10.86-2.59,21.32-6.22,31.44-4.85,13.51-9.12,25.43-1.36,35.93a28.11,28.11,0,0,1,4.56,4.84Z" style="fill: rgb(64, 123, 255); transform-origin: 234.759px 185.1px;" id="eljgozwd7nxr9" class="animable"></path><path d="M358.65,286.07c-37-5.71-75.2-46.92-89.58-62.44-2-2.19-3.62-3.91-4.63-4.9l.71-.73c1,1,2.64,2.74,4.67,4.94,14.31,15.44,52.32,56.47,89,62.13Z" style="fill: rgb(64, 123, 255); transform-origin: 311.63px 252.035px;" id="el19yjin5qwaw" class="animable"></path><path d="M383.23,295.65,371.65,292a.75.75,0,0,0-.92.48.74.74,0,0,0,.48.92L382.79,297a.73.73,0,1,0,.44-1.39Z" style="fill: rgb(64, 123, 255); transform-origin: 377.237px 294.508px;" id="elkbi3h14gohb" class="animable"></path><g id="el8id6jxoaodm"><path d="M383.23,295.65,371.65,292a.75.75,0,0,0-.92.48.74.74,0,0,0,.48.92L382.79,297a.73.73,0,1,0,.44-1.39Z" style="fill: rgb(255, 255, 255); opacity: 0.7; transform-origin: 377.237px 294.508px;" class="animable"></path></g><path d="M374.16,293.56c-1.34,4.26-4,7.23-5.85,6.64s-2.34-4.54-1-8.79,4-7.23,5.85-6.64S375.5,289.3,374.16,293.56Z" style="fill: rgb(64, 123, 255); transform-origin: 370.735px 292.485px;" id="el1yrrdgmjvon" class="animable"></path><g id="el9scz59zvajf"><path d="M374.16,293.56c-1.34,4.26-4,7.23-5.85,6.64s-2.34-4.54-1-8.79,4-7.23,5.85-6.64S375.5,289.3,374.16,293.56Z" style="opacity: 0.4; transform-origin: 370.735px 292.485px;" class="animable"></path></g><g id="elv2v0se3exfi"><path d="M351,284.52h17.11a2.62,2.62,0,0,1,2.62,2.62v4.49a2.62,2.62,0,0,1-2.62,2.62H351a0,0,0,0,1,0,0v-9.73A0,0,0,0,1,351,284.52Z" style="fill: rgb(64, 123, 255); transform-origin: 360.865px 289.385px; transform: rotate(17.46deg);" class="animable"></path></g><path d="M354.92,287.51c-1.34,4.26-4,7.23-5.85,6.63s-2.34-4.53-1-8.79,4-7.23,5.85-6.63S356.26,283.25,354.92,287.51Z" style="fill: rgb(64, 123, 255); transform-origin: 351.495px 286.43px;" id="elvkpp26jzmq" class="animable"></path><g id="el3ek5s1ib8l2"><path d="M354.92,287.51c-1.34,4.26-4,7.23-5.85,6.63s-2.34-4.53-1-8.79,4-7.23,5.85-6.63S356.26,283.25,354.92,287.51Z" style="opacity: 0.4; transform-origin: 351.495px 286.43px;" class="animable"></path></g><path d="M351,285.51l-11.58-3.64a.73.73,0,0,0-.44,1.4l11.58,3.64a.73.73,0,0,0,.44-1.4Z" style="fill: rgb(64, 123, 255); transform-origin: 344.99px 284.39px;" id="elcejq99ji60j" class="animable"></path><g id="elrq0ij2olqrr"><path d="M351,285.51l-11.58-3.64a.73.73,0,0,0-.44,1.4l11.58,3.64a.73.73,0,0,0,.44-1.4Z" style="fill: rgb(255, 255, 255); opacity: 0.7; transform-origin: 344.99px 284.39px;" class="animable"></path></g><path d="M360.51,277.61l5.69.44c5.43,2.53,1,8.85,1,8.85l-.9,3.91a3,3,0,0,1-3.28,2.1l-4-.28a3.15,3.15,0,0,1-3.13-3.06l.21-3.49a6.06,6.06,0,0,1,.91-2.86Z" style="fill: rgb(255, 139, 123); transform-origin: 362.396px 285.274px;" id="eltagc6oi3tmr" class="animable"></path><path d="M271.87,217.5c-4.38-2-7.72.75-11,2.06-.56.22-.53,1.81.52,2.05a4.93,4.93,0,0,0,3.85-.34c1,1.12,4.86,3.15,8,.32A6.1,6.1,0,0,0,271.87,217.5Z" style="fill: rgb(255, 139, 123); transform-origin: 266.876px 219.911px;" id="elug81ji3c6yl" class="animable"></path><path d="M270.92,45Q236.2,64.35,216.68,97.16c16.42,12.2,34,31.66,52.13,54.24,19-21.84,37.35-40.59,54.24-52.12Q304.86,65.71,270.92,45Z" style="fill: rgb(64, 123, 255); transform-origin: 269.865px 98.2px;" id="el9b2du1c807" class="animable"></path><g id="el586v8eirzi5"><path d="M270.92,45Q236.2,64.35,216.68,97.16c16.42,12.2,34,31.66,52.13,54.24,19-21.84,37.35-40.59,54.24-52.12Q304.86,65.71,270.92,45Z" style="fill: rgb(255, 255, 255); opacity: 0.3; transform-origin: 269.865px 98.2px;" class="animable"></path></g><g id="elylafsgiem9m"><path d="M270.47,67.67a58.43,58.43,0,0,0-22.29,21.42c6.75,5,14,13,21.42,22.29,7.81-9,15.36-16.68,22.3-21.42A58.35,58.35,0,0,0,270.47,67.67Z" style="fill: rgb(255, 255, 255); opacity: 0.6; transform-origin: 270.04px 89.525px;" class="animable"></path></g><g id="elc55dwd9j28"><path d="M269,141.84c3.14-9.1,16-23.24,22.38-25.79C287.44,122.18,275.41,131.67,269,141.84Z" style="fill: rgb(64, 123, 255); opacity: 0.3; transform-origin: 280.19px 128.945px;" class="animable"></path></g><g id="el69nlk4ekawp"><path d="M269.16,140.18c-6-10.33-13.07-31.83-15.56-40C264.06,117.09,264.76,125.91,269.16,140.18Z" style="fill: rgb(64, 123, 255); opacity: 0.3; transform-origin: 261.38px 120.18px;" class="animable"></path></g><g id="elbgls5eupd4b"><path d="M245.08,75.11c2.54-7.66,13.14-19.61,18.46-21.81C260.32,58.47,250.34,66.53,245.08,75.11Z" style="fill: rgb(64, 123, 255); opacity: 0.3; transform-origin: 254.31px 64.205px;" class="animable"></path></g><g id="elwqjvu9b2m9n"><path d="M273.82,49.17c5,5,8,14,11,17.14C284.92,61.64,279.08,51.85,273.82,49.17Z" style="fill: rgb(64, 123, 255); opacity: 0.3; transform-origin: 279.321px 57.74px;" class="animable"></path></g><g id="el6ubay9p4fkl"><path d="M266.74,141.8c-19.76-35-32.29-43.11-32.29-43.11S266.58,121.34,266.74,141.8Z" style="fill: rgb(64, 123, 255); opacity: 0.3; transform-origin: 250.595px 120.245px;" class="animable"></path></g><path d="M320.23,99.52l-.17,0c-34.35-14.82-68.13-15.49-100.39-2a.42.42,0,1,1-.33-.78c32.48-13.58,66.48-12.9,101.06,2a.43.43,0,0,1,.22.56A.42.42,0,0,1,320.23,99.52Z" style="fill: rgb(38, 50, 56); transform-origin: 269.868px 93.2784px;" id="elpnykgrdb90q" class="animable"></path><path d="M269.06,138.88h0a.42.42,0,0,1-.42-.43l1.77-88.84c0-.23.22-.45.43-.41a.42.42,0,0,1,.42.43l-1.77,88.84A.43.43,0,0,1,269.06,138.88Z" style="fill: rgb(38, 50, 56); transform-origin: 269.95px 94.0376px;" id="eledxtv1szkek" class="animable"></path><path d="M268.57,136.59l-16.8,16.14a.75.75,0,0,0,.66,1.28,79.43,79.43,0,0,1,32.64.65.75.75,0,0,0,.7-1.25l-16.14-16.8A.76.76,0,0,0,268.57,136.59Z" style="fill: rgb(64, 123, 255); transform-origin: 268.756px 145.53px;" id="el58uwngktx18" class="animable"></path><path d="M120.53,85.93l-.92-.4c1.74-4,3.65-7.93,5.67-11.78l.88.46C124.15,78.05,122.26,82,120.53,85.93Z" style="fill: rgb(64, 123, 255); transform-origin: 122.885px 79.84px;" id="elthxqdm352l" class="animable"></path><path d="M129.61,67.92l-.87-.5a199.89,199.89,0,0,1,11.72-18.09l.81.58A198,198,0,0,0,129.61,67.92Z" style="fill: rgb(64, 123, 255); transform-origin: 135.005px 58.625px;" id="elz7602cd3sug" class="animable"></path><path d="M157.76,33.67Q122,72.91,111.23,122.82c26,8.47,56.58,25.63,89.16,46.54,14.76-35.78,30-67.36,46.53-89.16Q209.56,45.4,157.76,33.67Z" style="fill: rgb(64, 123, 255); transform-origin: 179.075px 101.515px;" id="el1muz29pbb1c" class="animable"></path><g id="elnowfkuzfikj"><path d="M196.55,157.16c.11-12.88,10.36-36.26,17.38-42.22C211.56,124.38,200.35,141.54,196.55,157.16Z" style="opacity: 0.1; transform-origin: 205.24px 136.05px;" class="animable"></path></g><g id="elktzbe0k1xo"><path d="M196.05,155c-12.06-10.53-25.81-39.12-25.75-50.56C177.29,114.31,184.39,138.77,196.05,155Z" style="opacity: 0.1; transform-origin: 183.175px 129.72px;" class="animable"></path></g><g id="el4f30sryoavt"><path d="M138.26,91.73c0-10.78,8.29-30.44,14.11-35.5C150.48,64.15,141.27,78.62,138.26,91.73Z" style="opacity: 0.1; transform-origin: 145.315px 73.98px;" class="animable"></path></g><g id="el620rta7gf99"><path d="M176.93,52.13c8.52,4.25,16.07,14.42,21.2,17.05C196.31,63.21,184.73,53.28,176.93,52.13Z" style="opacity: 0.1; transform-origin: 187.53px 60.655px;" class="animable"></path></g><g id="el2n3f8eiuejy"><path d="M193.68,158.06c-39.93-35.88-59.29-40.86-59.29-40.86S184.76,132.21,193.68,158.06Z" style="opacity: 0.1; transform-origin: 164.035px 137.63px;" class="animable"></path></g><g id="el7o1kwvjy545"><g style="opacity: 0.3; transform-origin: 178.995px 93.54px;" class="animable"><path d="M157.76,33.67q-5.83,6.4-11,13.1Q156,52.4,165.57,58.54c2.89-7,5.78-13.81,8.71-20.42Q166.21,35.59,157.76,33.67Z" style="fill: rgb(255, 255, 255); transform-origin: 160.52px 46.105px;" id="elhdhkd9b8rmq" class="animable"></path><path d="M114.77,122.1a.59.59,0,0,1-.42-.19.56.56,0,0,1,.05-.8c35.38-31,78.76-44.67,128.92-40.51a.57.57,0,0,1-.09,1.13c-49.85-4.14-92.95,9.4-128.08,40.23A.59.59,0,0,1,114.77,122.1Z" style="fill: rgb(255, 255, 255); transform-origin: 178.995px 100.986px;" id="elai0ld2y8eys" class="animable"></path><path d="M195.2,153.41a.57.57,0,0,1-.54-.4L159.06,39.68a.57.57,0,1,1,1.08-.34l35.6,113.33a.57.57,0,0,1-.37.71Z" style="fill: rgb(255, 255, 255); transform-origin: 177.388px 96.1434px;" id="elhm8jqqf61q" class="animable"></path></g></g><path d="M193.78,150.69,179.37,178.3a1,1,0,0,0,1.37,1.34,106,106,0,0,1,41.64-13.08,1,1,0,0,0,.36-1.89l-27.61-14.41A1,1,0,0,0,193.78,150.69Z" style="fill: rgb(64, 123, 255); transform-origin: 201.273px 164.956px;" id="el1ozxlxzlpn2" class="animable"></path><g id="eljachqo39lkf"><path d="M193.78,150.69,179.37,178.3a1,1,0,0,0,1.37,1.34,106,106,0,0,1,41.64-13.08,1,1,0,0,0,.36-1.89l-27.61-14.41A1,1,0,0,0,193.78,150.69Z" style="opacity: 0.3; transform-origin: 201.273px 164.956px;" class="animable"></path></g></g><defs>     <filter id="active" height="200%">         <feMorphology in="SourceAlpha" result="DILATED" operator="dilate" radius="2"></feMorphology>                <feFlood flood-color="#32DFEC" flood-opacity="1" result="PINK"></feFlood>        <feComposite in="PINK" in2="DILATED" operator="in" result="OUTLINE"></feComposite>        <feMerge>            <feMergeNode in="OUTLINE"></feMergeNode>            <feMergeNode in="SourceGraphic"></feMergeNode>        </feMerge>    </filter>    <filter id="hover" height="200%">        <feMorphology in="SourceAlpha" result="DILATED" operator="dilate" radius="2"></feMorphology>                <feFlood flood-color="#ff0000" flood-opacity="0.5" result="PINK"></feFlood>        <feComposite in="PINK" in2="DILATED" operator="in" result="OUTLINE"></feComposite>        <feMerge>            <feMergeNode in="OUTLINE"></feMergeNode>            <feMergeNode in="SourceGraphic"></feMergeNode>        </feMerge>            <feColorMatrix type="matrix" values="0   0   0   0   0                0   1   0   0   0                0   0   0   0   0                0   0   0   1   0 "></feColorMatrix>    </filter></defs></svg>